<?xml version="1.0" encoding="UTF-8"?>
<svg id="Layer_1" xmlns="http://www.w3.org/2000/svg" version="1.1" viewBox="0 0 600 600">
  <!-- Generator: Adobe Illustrator 30.4.0, SVG Export Plug-In . SVG Version: 2.1.4 Build 226)  -->
  <defs>
    <style>
      .st0 {
        fill: #fff;
      }
    </style>
  </defs>
  <path class="st0" d="M530.7999268,294.1000366l.3000488.0999756v-5c0-119-103.5-215.4000244-231.0999756-215.4000244s-231.1000366,96.5-231.1000366,215.4000244v5.3999634c-23.0999756,39-32.7999878,81-16.7999878,123.4000244,16,42.3999634,42.5999756,66.7000122,72.7000122,78.0999756-1.2000122,20.8000488,25.1999512,25.7000122,32.8999634,17.8000488-3.2999878,12.0999756,15.1000366,33.7999878,33.7000122,19.2000122,1.2999878-1.0999756,2.5-2.2000122,3.3999634-3.5,10.8000488,24.7999878,46.2000122,17.9000244,52.3000488,4,1.5999756,17.2000122,34.3999634,36.2000122,52.7999878,12.7000122,18.3999634,23.5,51.0999756,4.5,52.7999878-12.7000122,6.0999756,13.9000244,41.5,20.7999878,52.2999878-4,1,1.2999878,2.0999756,2.4000244,3.3999634,3.5,18.6000366,14.5999756,37-7.0999756,33.7000122-19.2000122,7.6000366,7.7999878,33.7999878,3.0999756,32.9000244-17.4000244,30.2000122-11.5,56.7999878-36.0999756,72.5999756-78.5999756,16.0999756-43.2000122,6.2999878-85.1000366-16.7999878-123.7999878ZM196.9000244,337.1999512c3.0999756,19.3000488-34,52.8000488-61.7000122,22.7000122-29.7999878-32.2999878,25.7999878-97.2999878,29-103.8999634,7.2999878,3.6999512,91.7000122,10.1999512,92.9000244,54.7999878,1.0999756,40-47.1000366,43.0999756-60.2000122,26.3999634ZM338.2000122,427.7999878c-8.0999756,21.7999878-34.5999756,13-38.0999756,1.2000122-2.5,11-29.7000122,21-38.1000366-1.2000122-9-23.9000244,35-46.8000488,38.1000366-49.6000366,3.2000122,3.6000366,47.0999756,25.4000244,38.0999756,49.6000366ZM464.8999634,359.8999634h.000061c-27.7000122,30.1000366-64.8000488-3.3999634-61.7000122-22.7000122-13.1000366,16.7000122-61.2999878,13.6000366-60.2000122-26.3999634,1.2000122-44.6000366,85.5999756-51.1000366,92.8999634-54.7999878,3.2000122,6.5999756,58.7999878,71.5999756,29,103.8999634Z"/>
</svg>