<?xml version="1.0" encoding="UTF-8"?>
<svg id="Layer_1" xmlns="http://www.w3.org/2000/svg" version="1.1" viewBox="0 0 600 600">
  <!-- Generator: Adobe Illustrator 29.6.0, SVG Export Plug-In . SVG Version: 2.1.1 Build 207)  -->
  <defs>
    <style>
      .st0 {
        fill: #fff;
      }
    </style>
  </defs>
  <path d="M565.4,275.4c-.1-33.5-7.2-66-21.1-96.6-13.5-29.7-32.7-56.3-57.2-79.1-24.4-22.7-52.7-40.5-84.3-53-32.6-12.8-67.1-19.4-102.7-19.4s-70.2,6.5-102.7,19.4c-31.5,12.4-59.9,30.3-84.3,53-24.5,22.8-43.7,49.4-57.2,79.1-13.9,30.7-21,63.4-21.1,97.1C7,325.7,1.6,374,18.8,419.4c15.9,42,42.4,72.8,77.2,89.9,1.9,5.4,5,10.4,9,14.7,7.5,8,18.4,13.1,29.9,14.3.7,1.2,1.5,2.3,2.4,3.4,9,11.7,22,18.4,35.7,18.4s8.3-.6,12.3-1.8c9,6.7,20.3,10.4,32.8,10.4s14.3-1.2,20.7-3.5c10.4,9.2,24.4,15.1,38.8,15.1s15.7-1.8,22.7-5.3c6.9,3.5,14.6,5.3,22.7,5.3,14.4,0,28.4-5.9,38.8-15.1,6.4,2.3,13.4,3.5,20.7,3.5,12.5,0,23.8-3.7,32.8-10.4,4,1.2,8.1,1.8,12.3,1.8,13.7,0,26.7-6.7,35.7-18.4.8-1.1,1.6-2.2,2.4-3.4,11.3-1.2,22.1-6.3,29.6-14.1,4-4.2,7.1-9.1,9-14.4,35-17.2,61.6-48.3,77.4-90.6,17.1-46.1,11.7-94.4-16.1-143.8Z"/>
  <path class="st0" d="M531.1,294.2c0-1.7,0-3.3,0-5,0-119-103.5-215.4-231.1-215.4s-231.1,96.5-231.1,215.4,0,3.6,0,5.4c-23.1,39-32.8,81-16.8,123.4,16,42.4,42.6,66.7,72.7,78.1-1.2,20.8,25.2,25.7,32.9,17.8-3.3,12.1,15.1,33.8,33.7,19.2,1.3-1.1,2.5-2.2,3.4-3.5,10.8,24.8,46.2,17.9,52.3,4,1.6,17.2,34.4,36.2,52.8,12.7,18.4,23.5,51.1,4.5,52.8-12.7,6.1,13.9,41.5,20.8,52.3-4,1,1.3,2.1,2.4,3.4,3.5,18.6,14.6,37-7.1,33.7-19.2,7.6,7.8,33.8,3.1,32.9-17.4,30.2-11.5,56.8-36.1,72.6-78.6,16.1-43.2,6.3-85.1-16.8-123.8Z"/>
  <g>
    <path d="M135.2,359.9c27.7,30.1,64.8-3.4,61.7-22.7,13.1,16.7,61.3,13.6,60.2-26.4-1.2-44.6-85.6-51.1-92.9-54.8-3.2,6.6-58.8,71.6-29,103.9Z"/>
    <path d="M464.9,359.9c-27.7,30.1-64.8-3.4-61.7-22.7-13.1,16.7-61.3,13.6-60.2-26.4,1.2-44.6,85.6-51.1,92.9-54.8,3.2,6.6,58.8,71.6,29,103.9Z"/>
  </g>
  <path d="M262,427.8c8.4,22.2,35.6,12.2,38.1,1.2,3.5,11.8,30,20.6,38.1-1.2,9-24.2-34.9-46-38.1-49.6-3.1,2.8-47.1,25.7-38.1,49.6Z"/>
</svg>